<?xml version="1.0" encoding="UTF-8"?>
<svg xmlns="http://www.w3.org/2000/svg" xmlns:xlink="http://www.w3.org/1999/xlink" width="46pt" height="46pt" viewBox="0 0 46 46" version="1.1">
<g id="surface1">
<path style=" stroke:none;fill-rule:evenodd;fill:rgb(0%,0%,0%);fill-opacity:1;" d="M 42.804688 22.949219 C 42.804688 11.921875 33.863281 2.972656 22.832031 2.972656 C 11.796875 2.972656 2.855469 11.921875 2.855469 22.949219 C 2.855469 32.921875 10.15625 41.183594 19.707031 42.683594 L 19.707031 28.726562 L 14.636719 28.726562 L 14.636719 22.949219 L 19.707031 22.949219 L 19.707031 18.546875 C 19.707031 13.546875 22.695312 10.777344 27.253906 10.777344 C 29.441406 10.777344 31.726562 11.167969 31.726562 11.167969 L 31.726562 16.082031 L 29.207031 16.082031 C 26.726562 16.082031 25.953125 17.625 25.953125 19.207031 L 25.953125 22.949219 L 31.492188 22.949219 L 30.609375 28.726562 L 25.953125 28.726562 L 25.953125 42.6875 C 35.503906 41.1875 42.804688 32.921875 42.804688 22.949219 Z M 42.804688 22.949219 "/>
</g>
</svg>
