<?xml version="1.0" encoding="UTF-8"?>
<svg xmlns="http://www.w3.org/2000/svg" xmlns:xlink="http://www.w3.org/1999/xlink" width="46pt" height="46pt" viewBox="0 0 46 46" version="1.1">
<g id="surface1">
<path style=" stroke:none;fill-rule:evenodd;fill:rgb(100%,100%,100%);fill-opacity:1;" d="M 42.800781 22.949219 C 42.800781 11.921875 33.859375 2.96875 22.828125 2.96875 C 11.800781 2.96875 2.859375 11.921875 2.859375 22.949219 C 2.859375 32.921875 10.160156 41.179688 19.710938 42.679688 L 19.710938 28.730469 L 14.640625 28.730469 L 14.640625 22.949219 L 19.710938 22.949219 L 19.710938 18.550781 C 19.710938 13.550781 22.699219 10.78125 27.25 10.78125 C 29.441406 10.78125 31.730469 11.171875 31.730469 11.171875 L 31.730469 16.078125 L 29.210938 16.078125 C 26.730469 16.078125 25.949219 17.628906 25.949219 19.210938 L 25.949219 22.949219 L 31.488281 22.949219 L 30.609375 28.730469 L 25.949219 28.730469 L 25.949219 42.691406 C 35.5 41.191406 42.800781 32.921875 42.800781 22.949219 Z M 42.800781 22.949219 "/>
</g>
</svg>
